# xmcd
#
# Track frame offsets:
#	150
#	15735
#	34135
#	49664
#	65593
#	84312
#	99889
#	118361
#	136666
#	153846
#	180173
#	196078
#	212789
#	228696
#	249738
#
# Disc length: 3624 seconds
#
# Revision: 1
# Processed by: cddbd v1.5.1PL2 Copyright (c) Steve Scherf et al.
# Submitted via: audiograbber 1.83.01
#
DISCID=c00e260f
DTITLE=Various Artist - Askc20051
DYEAR=1900
DGENRE=Country
TTITLE0=Jackson, Alan - Monday Morning Church
TTITLE1=Big and Rich - Holy Water
TTITLE2=Shelton, Blake - Some Beach
TTITLE3=Brooks and Dunn - That's What It's All About
TTITLE4=Wilson, Gretchen - When I Think About Cheatin'
TTITLE5=O'Neal, Jamie - Trying To Find Atlantis
TTITLE6=Urban, Keith - You're My Better Half
TTITLE7=Chesney, Kenny - Woman With You, The
TTITLE8=Womack, Lee Ann - I May Hate Myself In The Morning
TTITLE9=McBride, Martina - God's Will
TTITLE10=Montgomery Gentry - If You Ever Stop Loving Me
TTITLE11=McEntire, Reba - He Gets That From Me
TTITLE12=Twain, Shania and Currington, Billy - Party For Two
TTITLE13=McGraw, Tim - Back When
TTITLE14=Keith, Toby - Stays In Mexico
EXTD=
EXTT0=
EXTT1=
EXTT2=
EXTT3=
EXTT4=
EXTT5=
EXTT6=
EXTT7=
EXTT8=
EXTT9=
EXTT10=
EXTT11=
EXTT12=
EXTT13=
EXTT14=
PLAYORDER=
